#!OML:ASF Y:\EmotionMaleHayes\Project 1\Capture day 1\Session 1\Male1.ASF
:FULLY-SPECIFIED
:DEGREES
2111
root 33.2702 17.0231 -16.1184 923.836 -73.6085 884.23
lowerback 8.19825 1.99149 -14.3782
upperback 5.65739 1.35616 -2.39636
thorax 1.13328 0.177394 5.40693
lowerneck -23.1933 5.51731 8.11762
upperneck 25.1686 5.37244 -2.76196
head 12.5274 2.71935 -1.47651
rclavicle 3.61788e-014 -1.11319e-014
rhumerus 45.7294 12.3088 -33.4093
rradius 38.6277
rwrist -2.68326
rhand -6.56038 -32.0151
rfingers 7.12502
rthumb 19.2936 -61.078
lclavicle 3.61788e-014 -1.11319e-014
lhumerus 39.7673 -14.4517 35.072
lradius 38.694
lwrist 5.14811
lhand -17.0539 -26.2337
lfingers 7.12502
lthumb 9.18331 3.54639
rfemur -27.8232 -8.75391 10.6854
rtibia 13.7447
rfoot 5.56625 5.9715
rtoes 27.0515
lfemur 19.6388 -7.34701 -22.0225
ltibia 2.80902
lfoot -15.1188 10.7782
ltoes -21.347
2112
root 33.1167 16.9462 -16.1782 923.79 -73.9153 883.953
lowerback 8.1327 1.90462 -13.9966
upperback 5.85059 1.29755 -2.25347
thorax 1.38657 0.131572 5.35552
lowerneck -23.1042 5.50359 8.01984
upperneck 24.9858 5.35645 -2.61992
head 12.4281 2.72369 -1.41007
rclavicle 1.27222e-014 4.77083e-015
rhumerus 45.8623 12.0421 -33.4614
rradius 38.5989
rwrist -2.31692
rhand -6.26665 -31.6574
rfingers 7.12502
rthumb 19.576 -60.6919
lclavicle 1.27222e-014 4.77083e-015
lhumerus 39.5337 -14.3705 35.2886
lradius 38.9219
lwrist 4.63957
lhand -17.0308 -26.0409
lfingers 7.12502
lthumb 9.20564 3.73811
rfemur -27.9745 -8.11194 10.8677
rtibia 15.2479
rfoot 1.66722 3.74033
rtoes 18.6101
lfemur 20.6458 -6.71184 -21.3704
ltibia 2.65577
lfoot -15.0327 9.33708
ltoes -21.1182
2113
root 32.9542 16.869 -16.2261 926.441 -74.0516 880.982
lowerback 7.96397 1.76648 -14.1359
upperback 6.06159 1.14336 -2.34152
thorax 1.73932 0.0146692 5.35202
lowerneck -23.2184 5.55284 8.11244
upperneck 24.878 5.38793 -2.62739
head 12.4133 2.74625 -1.41948
rclavicle -8.74653e-015 -2.78299e-014
rhumerus 46.1277 11.6708 -33.6783
rradius 38.4744
rwrist -1.86529
rhand -6.13864 -31.2282
rfingers 7.12502
rthumb 19.6991 -60.25
lclavicle -8.74653e-015 -2.78299e-014
lhumerus 39.1971 -14.2425 35.3808
lradius 39.3929
lwrist 4.33908
lhand -16.7052 -25.4134
lfingers 7.12502
lthumb 9.51978 4.35158
rfemur -28.2163 -8.41686 10.2388
rtibia 17.1558
rfoot -1.19508 2.05398
rtoes 15.1757
lfemur 21.4861 -6.34904 -21.8653
ltibia 2.67354
lfoot -15.0825 8.04868
ltoes -19.9146
2114
root 32.8008 16.79 -16.277 928.205 -74.2301 878.962
lowerback 8.08701 1.675 -14.0207
upperback 6.03931 1.00831 -2.34359
thorax 1.67283 -0.0424925 5.29518
lowerneck -23.2058 5.56087 8.19072
upperneck 24.9204 5.38607 -2.67673
head 12.432 2.74662 -1.45167
rclavicle 2.26615e-014 3.18055e-014
rhumerus 46.1084 11.5318 -33.8849
rradius 38.4231
rwrist -1.48294
rhand -5.95968 -30.8125
rfingers 7.12502
rthumb 19.8711 -59.8167
lclavicle 2.26615e-014 3.18055e-014
lhumerus 39.4979 -14.5558 35.3212
lradius 38.8249
lwrist 4.2796
lhand -16.6013 -25.4429
lfingers 7.12502
lthumb 9.62008 4.31745
rfemur -28.4513 -8.12409 9.86382
rtibia 19.0553
rfoot -2.48676 1.3031
rtoes 8.04164
lfemur 22.2371 -6.33903 -22.1262
ltibia 2.87479
lfoot -15.3215 7.24977
ltoes -19.4162
2115
root 32.6564 16.7171 -16.3307 928.737 -74.554 878.171
lowerback 8.4246 1.63256 -13.5919
upperback 5.96711 0.924614 -2.22209
thorax 1.41979 -0.0501313 5.19211
lowerneck -23.1268 5.48124 8.22468
upperneck 24.8954 5.31633 -2.83218
head 12.408 2.69899 -1.5307
rclavicle -1.27222e-014 -1.03368e-013
rhumerus 46.0234 11.4329 -34.0135
rradius 38.3467
rwrist -1.17458
rhand -5.91294 -30.5914
rfingers 7.12502
rthumb 19.916 -59.5908
lclavicle -1.27222e-014 -1.03368e-013
lhumerus 39.6822 -15.066 35.121
lradius 38.4456
lwrist 4.4092
lhand -16.7423 -25.726
lfingers 7.12502
lthumb 9.484 4.04057
rfemur -28.5246 -7.18011 9.83396
rtibia 20.7286
rfoot -3.70118 0.00882966
rtoes 6.03922
lfemur 22.8635 -5.91729 -21.5718
ltibia 3.26692
lfoot -15.1739 6.0862
ltoes -21.7388
2116
root 32.5124 16.6548 -16.3846 927.534 -74.8918 879.17
lowerback 8.60414 1.61056 -12.8335
upperback 5.99532 0.934419 -1.91629
thorax 1.34091 -0.0189185 5.0962
lowerneck -23.0831 5.34573 8.18902
upperneck 24.8058 5.21795 -3.07208
head 12.3627 2.62079 -1.63479
rclavicle 2.8625e-014 2.78299e-014
rhumerus 46.1961 11.3031 -34.0953
rradius 38.2528
rwrist -0.848782
rhand -5.93589 -31.2953
rfingers 7.12502
rthumb 19.894 -60.2971
lclavicle 2.8625e-014 2.78299e-014
lhumerus 39.2884 -15.0383 35.7284
lradius 38.3881
lwrist 3.89585
lhand -16.8128 -25.8504
lfingers 7.12502
lthumb 9.41598 3.91924
rfemur -28.6068 -5.52845 10.2672
rtibia 22.2355
rfoot -5.1874 -1.94021
rtoes 7.63493
lfemur 23.4381 -5.0535 -20.2203
ltibia 3.66254
lfoot -14.5954 4.39038
ltoes -23.782
